<svg width="16" height="16" viewBox="0 0 16 16" fill="none" xmlns="http://www.w3.org/2000/svg">
<path d="M8.91113 10.3252C8.62848 10.436 8.32195 10.5 8 10.5C6.61929 10.5 5.5 9.38071 5.5 8C5.5 7.67785 5.56286 7.37068 5.67383 7.08789L8.91113 10.3252ZM8 5.5C9.38071 5.5 10.5 6.61929 10.5 8C10.5 8.32196 10.436 8.62848 10.3252 8.91113L7.08789 5.67383C7.37068 5.56286 7.67785 5.5 8 5.5Z" fill="black"/>
<path d="M4.47888 5.89223C4.03553 6.15061 3.61399 6.46187 3.224 6.82582L1.96521 7.99965L3.22302 9.17348C4.95762 10.7924 7.30971 11.3655 9.48279 10.8961L10.3051 11.7184C7.77845 12.4766 4.95269 11.9601 2.83435 10.1666L2.54236 9.90492L1.28259 8.73012C0.859961 8.33478 0.860598 7.6643 1.28357 7.26918L2.54236 6.09438C2.92143 5.74065 3.32608 5.4302 3.75037 5.16371L4.47888 5.89223ZM5.69666 4.28188C8.34127 3.48844 11.3128 4.09198 13.4584 6.09438L14.7172 7.26918C15.1402 7.66435 15.1399 8.33481 14.7172 8.73012L13.4584 9.9059C13.0794 10.2595 12.6745 10.5692 12.2504 10.8356L11.5209 10.1061C11.9643 9.84766 12.3867 9.53748 12.7767 9.17348L14.0345 7.99965L12.7767 6.82582C11.0421 5.20688 8.68993 4.63293 6.51697 5.10219L5.69666 4.28188Z" fill="black"/>
<path d="M2.5 2.5L13.5 13.5" stroke="black" stroke-linecap="round"/>
</svg>
