<svg width="16" height="16" viewBox="0 0 16 16" fill="none" xmlns="http://www.w3.org/2000/svg">
<path d="M8 6.00002C9.10457 6.00002 10 6.89545 10 8.00002C9.99999 9.10458 9.10457 10 8 10C6.89544 10 6.00001 9.10458 6 8.00002C6 6.89545 6.89543 6.00002 8 6.00002Z" fill="black" stroke="black"/>
<path d="M1.62488 7.63472L2.88234 6.46012C5.76389 3.77068 10.2359 3.77068 13.1174 6.46012L14.3756 7.63403C14.5874 7.8317 14.5874 8.16833 14.3756 8.366L13.1174 9.53991C10.2359 12.2293 5.76389 12.2294 2.88234 9.53991L1.62488 8.36531C1.41309 8.16764 1.41309 7.83239 1.62488 7.63472Z" stroke="black"/>
</svg>
